<?xml version="1.0" encoding="UTF-8" standalone="no"?>
<svg
   width="64"
   height="64"
   viewBox="0 0 63.999999 63.999998"
   id="svg2"
   version="1.1"
   inkscape:version="1.4.2 (ebf0e94, 2025-05-08)"
   sodipodi:docname="ConstraintLinkPart.svg"
   xml:space="preserve"
   xmlns:inkscape="http://www.inkscape.org/namespaces/inkscape"
   xmlns:sodipodi="http://sodipodi.sourceforge.net/DTD/sodipodi-0.dtd"
   xmlns:xlink="http://www.w3.org/1999/xlink"
   xmlns="http://www.w3.org/2000/svg"
   xmlns:svg="http://www.w3.org/2000/svg"
   xmlns:rdf="http://www.w3.org/1999/02/22-rdf-syntax-ns#"
   xmlns:cc="http://creativecommons.org/ns#"
   xmlns:dc="http://purl.org/dc/elements/1.1/"><metadata
     id="metadata14"><rdf:RDF><cc:Work
         rdf:about=""><dc:format>image/svg+xml</dc:format><dc:type
           rdf:resource="http://purl.org/dc/dcmitype/StillImage" /><dc:title /></cc:Work></rdf:RDF></metadata><defs
     id="defs12"><linearGradient
       inkscape:collect="always"
       id="linearGradient3861"><stop
         style="stop-color:#3465a4;stop-opacity:1;"
         offset="0"
         id="stop3863" /><stop
         style="stop-color:#729fcf;stop-opacity:1"
         offset="1"
         id="stop3865" /></linearGradient><linearGradient
       inkscape:collect="always"
       xlink:href="#linearGradient3774"
       id="linearGradient4316"
       gradientUnits="userSpaceOnUse"
       gradientTransform="matrix(-0.51964051,0,0,0.50042191,1386.3532,982.21378)"
       x1="288.11227"
       y1="358.15811"
       x2="372.52457"
       y2="7.5416322" /><linearGradient
       inkscape:collect="always"
       id="linearGradient3774"><stop
         style="stop-color:#4e9a06;stop-opacity:1"
         offset="0"
         id="stop3776" /><stop
         style="stop-color:#8ae234;stop-opacity:1"
         offset="1"
         id="stop3778" /></linearGradient><linearGradient
       inkscape:collect="always"
       id="linearGradient8"><stop
         style="stop-color:#cf7272;stop-opacity:1;"
         offset="0"
         id="stop7" /><stop
         style="stop-color:#fe3434;stop-opacity:1;"
         offset="1"
         id="stop8" /></linearGradient><linearGradient
       inkscape:collect="always"
       id="linearGradient5"><stop
         style="stop-color:#fe3434;stop-opacity:1;"
         offset="0"
         id="stop4" /><stop
         style="stop-color:#cf7272;stop-opacity:1;"
         offset="1"
         id="stop5" /></linearGradient><linearGradient
       inkscape:collect="always"
       xlink:href="#linearGradient3861"
       id="linearGradient4389"
       x1="20.243532"
       y1="37.588112"
       x2="17.243532"
       y2="27.588112"
       gradientUnits="userSpaceOnUse"
       gradientTransform="translate(-1.243533,-2.588112)" /><linearGradient
       inkscape:collect="always"
       xlink:href="#linearGradient3861"
       id="linearGradient4389-0"
       x1="27.243532"
       y1="54.588112"
       x2="21.243532"
       y2="30.588112"
       gradientUnits="userSpaceOnUse"
       gradientTransform="translate(-1.243533,-2.588112)" /><linearGradient
       inkscape:collect="always"
       xlink:href="#linearGradient4393-9"
       id="linearGradient4399-7"
       x1="48.714352"
       y1="45.585785"
       x2="40.714352"
       y2="24.585787"
       gradientUnits="userSpaceOnUse"
       gradientTransform="translate(1.2856487,1.4142136)" /><linearGradient
       inkscape:collect="always"
       id="linearGradient4393-9"><stop
         style="stop-color:#204a87;stop-opacity:1"
         offset="0"
         id="stop4395-8" /><stop
         style="stop-color:#3465a4;stop-opacity:1"
         offset="1"
         id="stop4397-1" /></linearGradient><linearGradient
       inkscape:collect="always"
       xlink:href="#linearGradient5"
       id="linearGradient69042"
       gradientUnits="userSpaceOnUse"
       gradientTransform="translate(-12.714351,-17.585786)"
       x1="48.714352"
       y1="45.585785"
       x2="47.044941"
       y2="36.821247" /><linearGradient
       inkscape:collect="always"
       xlink:href="#linearGradient5"
       id="linearGradient69056"
       gradientUnits="userSpaceOnUse"
       gradientTransform="translate(-1.255977,-2.5807878)"
       x1="27.243532"
       y1="54.588112"
       x2="16.900785"
       y2="27.502426" /><linearGradient
       inkscape:collect="always"
       xlink:href="#linearGradient8"
       id="linearGradient6"
       gradientUnits="userSpaceOnUse"
       gradientTransform="matrix(0.93916811,0,0,1.0296467,3.6585837,-0.16045175)"
       x1="48.714352"
       y1="45.585785"
       x2="47.044941"
       y2="36.821247" /></defs><sodipodi:namedview
     pagecolor="#ffffff"
     bordercolor="#666666"
     borderopacity="1"
     objecttolerance="10"
     gridtolerance="10"
     guidetolerance="10"
     inkscape:pageopacity="0"
     inkscape:pageshadow="2"
     inkscape:window-width="1920"
     inkscape:window-height="1131"
     id="namedview10"
     showgrid="false"
     inkscape:zoom="6.3956362"
     inkscape:cx="-4.7688767"
     inkscape:cy="38.463727"
     inkscape:window-x="0"
     inkscape:window-y="32"
     inkscape:window-maximized="1"
     inkscape:current-layer="svg2"
     inkscape:showpageshadow="2"
     inkscape:pagecheckerboard="0"
     inkscape:deskcolor="#d1d1d1" /><g
     id="g1"
     transform="matrix(1.0225248,0,0,1.0225248,-0.71900152,-0.00213799)"><g
       id="layer1"
       inkscape:label="Layer 1"
       transform="matrix(1.143186,0,0,1.143186,-4.5842522,-4.5914364)"><path
         style="fill:url(#linearGradient69056);fill-opacity:1;fill-rule:nonzero;stroke:#000000;stroke-width:1.64015;stroke-linejoin:round;stroke-miterlimit:4;stroke-dasharray:none;stroke-opacity:1"
         d="m 8.9875557,49.007324 v -28 l 13.9999993,5 v 14 l 14.000001,5 v 14 z"
         id="path4381"
         inkscape:connector-curvature="0"
         sodipodi:nodetypes="ccccccc" /><path
         style="fill:none;stroke:#c52020;stroke-width:2.02112;stroke-linejoin:miter;stroke-miterlimit:4;stroke-dasharray:none;stroke-opacity:1"
         d="m 10.745234,47.793895 0.08945,-24.149806 10.28573,3.676849 0.159083,13.801309 14.05711,5.198513 -0.180343,10.130924 z"
         id="path4381-7"
         inkscape:connector-curvature="0"
         sodipodi:nodetypes="ccccccc" /><path
         style="fill:#c00000;fill-opacity:1;fill-rule:nonzero;stroke:#0b1521;stroke-width:1.64015;stroke-linejoin:round;stroke-miterlimit:4;stroke-dasharray:none"
         d="M 9,21 29,5 42,10 23,26 Z"
         id="path4403"
         inkscape:connector-curvature="0"
         sodipodi:nodetypes="ccccc" /><path
         sodipodi:nodetypes="ccccc"
         inkscape:connector-curvature="0"
         id="path69038"
         d="M 23,40 42,23 55,28 37,45 Z"
         style="fill:#c00000;fill-opacity:1;fill-rule:nonzero;stroke:#0b1521;stroke-width:1.64015;stroke-linejoin:round;stroke-miterlimit:4;stroke-dasharray:none" /><path
         sodipodi:nodetypes="ccccc"
         inkscape:connector-curvature="0"
         id="path69040"
         d="M 23,40 V 26 L 42,10 v 13 z"
         style="fill:url(#linearGradient69042);fill-opacity:1;fill-rule:nonzero;stroke:#0b1521;stroke-width:1.64015;stroke-linejoin:round;stroke-miterlimit:4;stroke-dasharray:none" /><path
         sodipodi:nodetypes="ccccc"
         inkscape:connector-curvature="0"
         id="path69044"
         d="M 24.375408,36.627666 V 27.139601 L 40.422913,13.434617 v 8.433836 z"
         style="fill:none;stroke:#c52020;stroke-width:1.74185;stroke-linejoin:miter;stroke-miterlimit:4;stroke-dasharray:none;stroke-opacity:1" /><path
         sodipodi:nodetypes="ccccc"
         inkscape:connector-curvature="0"
         id="path69040-5"
         d="M 37.200363,59.132565 V 44.71751 L 55.044557,28.243163 V 41.62857 Z"
         style="fill:url(#linearGradient6);fill-opacity:1;fill-rule:nonzero;stroke:#0b1521;stroke-width:1.64015;stroke-linejoin:round;stroke-miterlimit:4;stroke-dasharray:none" /><path
         sodipodi:nodetypes="ccccc"
         inkscape:connector-curvature="0"
         id="path69044-3"
         d="M 39.078699,55.013978 V 45.747157 L 53.166221,32.36175 v 8.237173 z"
         style="fill:none;stroke:#c52020;stroke-width:1.96673;stroke-linejoin:miter;stroke-miterlimit:4;stroke-dasharray:none;stroke-opacity:1" /></g><g
       id="layer2"
       inkscape:label="temporal"
       style="display:none;opacity:0.588"><path
         inkscape:connector-curvature="0"
         id="path68967"
         d="M 9,35 V 49"
         style="fill:#ef2929;fill-rule:evenodd;stroke:#ef2929;stroke-width:1px;stroke-linecap:butt;stroke-linejoin:miter;stroke-opacity:1"
         sodipodi:nodetypes="cc" /><path
         inkscape:connector-curvature="0"
         id="path68971"
         d="M 9,35 37,45"
         style="fill:#ef2929;fill-rule:evenodd;stroke:#ef2929;stroke-width:1px;stroke-linecap:butt;stroke-linejoin:miter;stroke-opacity:1" /><path
         sodipodi:nodetypes="cc"
         style="fill:#ef2929;fill-rule:evenodd;stroke:#ef2929;stroke-width:1px;stroke-linecap:butt;stroke-linejoin:miter;stroke-opacity:1"
         d="M 55,28 V 41"
         id="path68973"
         inkscape:connector-curvature="0" /><path
         style="fill:#ef2929;fill-rule:evenodd;stroke:#ef2929;stroke-width:1px;stroke-linecap:butt;stroke-linejoin:miter;stroke-opacity:1"
         d="M 37,45 55,28"
         id="path68977"
         inkscape:connector-curvature="0"
         sodipodi:nodetypes="cc" /><path
         sodipodi:nodetypes="cc"
         inkscape:connector-curvature="0"
         id="path68983"
         d="M 23,40 V 26"
         style="fill:#ef2929;fill-rule:evenodd;stroke:#ef2929;stroke-width:1px;stroke-linecap:butt;stroke-linejoin:miter;stroke-opacity:1" /><path
         sodipodi:nodetypes="cc"
         inkscape:connector-curvature="0"
         id="path68985"
         d="m 29,5 13,5"
         style="fill:#ef2929;fill-rule:evenodd;stroke:#ef2929;stroke-width:1px;stroke-linecap:butt;stroke-linejoin:miter;stroke-opacity:1" /><path
         style="fill:#ef2929;fill-rule:evenodd;stroke:#ef2929;stroke-width:1px;stroke-linecap:butt;stroke-linejoin:miter;stroke-opacity:1"
         d="M 23,26 42,10"
         id="path68989"
         inkscape:connector-curvature="0"
         sodipodi:nodetypes="cc" /><path
         style="fill:#ef2929;fill-rule:evenodd;stroke:#ef2929;stroke-width:1px;stroke-linecap:butt;stroke-linejoin:miter;stroke-opacity:1"
         d="M 19,13 29,5"
         id="path68993"
         inkscape:connector-curvature="0"
         sodipodi:nodetypes="cc" /><path
         style="fill:#ef2929;fill-rule:evenodd;stroke:#ef2929;stroke-width:1px;stroke-linecap:butt;stroke-linejoin:miter;stroke-opacity:1"
         d="m 55,15 -9,8"
         id="path68997"
         inkscape:connector-curvature="0"
         sodipodi:nodetypes="cc" /><path
         sodipodi:nodetypes="cc"
         inkscape:connector-curvature="0"
         id="path69030"
         d="M 42,23 V 10"
         style="fill:#ef2929;fill-rule:evenodd;stroke:#ef2929;stroke-width:1px;stroke-linecap:butt;stroke-linejoin:miter;stroke-opacity:1" /><path
         style="fill:#ef2929;fill-rule:evenodd;stroke:#ef2929;stroke-width:1px;stroke-linecap:butt;stroke-linejoin:miter;stroke-opacity:1"
         d="m 42,23 14,5"
         id="path69034"
         inkscape:connector-curvature="0"
         sodipodi:nodetypes="cc" /><path
         sodipodi:nodetypes="cc"
         inkscape:connector-curvature="0"
         id="path69036"
         d="M 23,40 42,23"
         style="fill:#ef2929;fill-rule:evenodd;stroke:#ef2929;stroke-width:1px;stroke-linecap:butt;stroke-linejoin:miter;stroke-opacity:1" /></g></g><g
     id="g4310"
     transform="matrix(0.15036907,0,0,-0.13295786,-139.60435,195.22735)"><path
       id="path4312"
       d="m 1145.5648,1074.1543 c 18.5937,-18.383 48.2169,-28.9064 88.8688,-31.5737 v -37.4326 c 0,-4.0003 1.9294,-6.80966 5.7868,-8.43006 4.0547,-1.61639 7.5171,-0.95178 10.3849,2.00121 l 75.9581,73.15065 c 1.8799,1.8121 2.8184,3.9543 2.8184,6.4303 0,2.4767 -0.9389,4.6185 -2.8184,6.429 l -75.9602,73.1502 c -1.7833,1.81 -4.0064,2.7148 -6.6772,2.7148 -1.1865,0 -2.4222,-0.2382 -3.7083,-0.7141 -3.8572,-1.6204 -5.7882,-4.4273 -5.7882,-8.4296 v -35.8618 c -15.9228,1.2386 -29.1503,3.7387 -39.6881,7.5008 -10.5331,3.7627 -18.9637,9.0247 -25.2946,15.7879 -14.738,15.7158 -19.9806,42.6214 -15.7274,80.7237 0.1953,2.4775 -0.9389,4.0963 -3.4125,4.858 -0.2967,0.097 -0.7414,0.142 -1.3349,0.142 -1.9778,0 -3.361,-0.8095 -4.154,-2.4285 l -2.9667,-5.7148 c -1.3832,-2.6676 -3.3858,-6.9784 -6.007,-12.9313 -2.6194,-5.9556 -4.9969,-11.9071 -7.1237,-17.8612 -2.1269,-5.9515 -4.0298,-12.5235 -5.7119,-19.7147 -1.6805,-7.194 -2.5219,-13.5508 -2.5219,-19.074 0,-32.0039 8.3606,-56.2428 25.078,-72.7222 z"
       inkscape:connector-curvature="0"
       style="opacity:1;fill:#8ae234;fill-opacity:1;stroke:#172a04;stroke-width:14.8302;stroke-miterlimit:4;stroke-dasharray:none;stroke-opacity:1" /><path
       style="opacity:1;fill:url(#linearGradient4316);fill-opacity:1;stroke:none;stroke-width:34.7533;stroke-miterlimit:4;stroke-dasharray:none;stroke-opacity:1"
       d="m 1252.6459,1025.0625 c 18.4441,17.7617 37.1632,35.1962 55.3062,53.3235 -19.0906,18.0067 -37.542,36.7844 -56.7747,54.6184 -0.018,-12.2743 -0.087,-24.5491 0.032,-36.8231 -26.4463,1.6409 -53.9694,3.575 -77.8197,17.2303 -17.0095,9.5803 -28.4884,27.8106 -34.5388,47.088 -3.5743,-21.5969 -1.2897,-45.3408 10.607,-63.6609 11.0273,-16.9013 29.5358,-25.7267 47.629,-30.3404 14.7839,-4.3279 30.2561,-4.0127 45.1276,-7.7257 7.8392,-4.3982 10.4187,-14.9284 9.2176,-23.8416 -0.062,-3.7919 -0.2886,-7.6325 -0.4323,-11.451 0.5488,0.5275 1.0977,1.055 1.6465,1.5825 z"
       id="path4314"
       inkscape:connector-curvature="0" /></g></svg>
